<?xml version="1.0" encoding="UTF-8"?>
<svg id="_レイヤー_1" data-name="レイヤー 1" xmlns="http://www.w3.org/2000/svg" viewBox="0 0 1126.61 1126.61">
  <defs>
    <style>
      .cls-1 {
        fill: #ff3400;
      }
    </style>
  </defs>
  <g id="_生成オブジェクト_-165_0_" data-name="生成オブジェクト (-165、0)">
    <path class="cls-1" d="M529.15,756.76c-18.03,6.95-36,12.61-54.3,18.28-12.53,3.88-24.69,6.79-37.48,9.45-22.65,4.72-52.18,9.05-73.41.33-17.7-7.27-27.25-25.75-22.58-44.33l37.06-247.51,20.58-137.68c5.61-15.67,21.83-22.59,37.02-16.14l285.55,178.38,44.68,27.78c14.92,9.28,23.57,25.36,18.81,43-2.98,11.04-9.09,20.63-16.86,29.37-26.26,29.54-70.5,57.02-104.89,76.33-43.19,24.24-87.97,44.93-134.19,62.74ZM658.62,551.53c2.48-.75,3.07-4.37,3.07-5.97,0-1.95-1.39-3.6-3.42-4.87l-95.69-59.89-61.88-38.62c-.49.77-1.2.31-.94-.57l-48.36-30.28c-1.96-1.23-3.69-1.32-5.53-.24-1.67.97-1.87,2.27-2.22,4.61l-36.07,242.13c-.56,3.77,3.88,6.33,7.25,6.11,58.14-37.5,119.01-67.51,183.07-92.06,20.1-7.7,40.06-14.09,60.72-20.35ZM432.68,731.08c22.43-5.25,44.33-11.93,66.11-19.89,65.6-23.99,143.33-61.13,200.14-102.56,2.76-2.02,3.76-4.54,2.79-7.42-.76-2.27-2.84-4.84-6.09-4.08-21.44,5.03-42.31,11.24-62.97,18.67-67.72,24.35-148.07,62.8-206.57,105.3-2.6,1.89-1.92,5.82-.52,7.74,1.84,2.51,4.02,2.96,7.1,2.24Z"/>
  </g>
</svg>