<?xml version="1.0" encoding="UTF-8"?>
<svg id="_レイヤー_1" data-name="レイヤー 1" xmlns="http://www.w3.org/2000/svg" viewBox="0 0 841.89 411.35">
  <defs>
    <style>
      .cls-1 {
        fill: #fc2000;
      }
    </style>
  </defs>
  <path class="cls-1" d="M453.23,36.79v62.7c0,2.16,1.75,3.91,3.91,3.91h43.28c2.16,0,3.91,1.75,3.91,3.91v271.63c0,2.16,1.75,3.91,3.91,3.91h62.7c2.16,0,3.91-1.75,3.91-3.91V36.79c0-2.16-1.75-3.91-3.91-3.91h-113.8c-2.16,0-3.91,1.75-3.91,3.91Z"/>
  <path class="cls-1" d="M393.39,32.88h-67.45c-1.81,0-3.38,1.24-3.8,2.99l-82.81,342.15c-.6,2.46,1.27,4.83,3.8,4.83h62.47c1.81,0,3.38-1.24,3.8-2.99l2.51-10.39c.42-1.76,2-2.99,3.8-2.99h100.6c1.81,0,3.38,1.24,3.8,2.99l2.51,10.39c.42,1.76,2,2.99,3.8,2.99h62.47c2.53,0,4.4-2.37,3.8-4.83L409.93,35.87c-.42-1.76-2-2.99-3.8-2.99h-12.73ZM330.89,291.13l31.34-129.5c.97-3.99,6.64-3.99,7.6,0l31.34,129.5c.6,2.46-1.27,4.83-3.8,4.83h-62.68c-2.53,0-4.4-2.37-3.8-4.83Z"/>
  <path class="cls-1" d="M794.41,36.57l-119.8,74.14c-2.61,1.61-5.97-.26-5.97-3.33V36.79c0-2.16-1.75-3.91-3.91-3.91h-62.7c-2.16,0-3.91,1.75-3.91,3.91v342.15c0,2.16,1.75,3.91,3.91,3.91h62.7c2.16,0,3.91-1.75,3.91-3.91v-70.59c0-3.06,3.36-4.94,5.97-3.33l119.8,74.14c2.61,1.61,5.97-.26,5.97-3.33v-86.59c0-1.35-.7-2.61-1.85-3.33l-120.74-74.72c-2.47-1.53-2.47-5.12,0-6.65l120.74-74.72c1.15-.71,1.85-1.97,1.85-3.33V39.9c0-3.06-3.36-4.94-5.97-3.33Z"/>
  <path class="cls-1" d="M281.54,144.32h0c0-61.55-49.89-111.44-111.44-111.44h-87.59s0,0,0,0h-37.11c-2.15,0-3.89,1.74-3.89,3.89v342.19c0,2.15,1.74,3.89,3.89,3.89h62.74c2.15,0,3.89-1.74,3.89-3.89v-119.31c0-2.15,1.74-3.89,3.89-3.89h54.18c61.55,0,111.44-49.89,111.44-111.44ZM211.02,144.32c0,22.6-18.32,40.91-40.91,40.91h-54.18c-2.15,0-3.89-1.74-3.89-3.89v-74.04c0-2.15,1.74-3.89,3.89-3.89h54.18c22.6,0,40.91,18.32,40.91,40.91h0Z"/>
</svg>